<svg enable-background="new 0 0 427.2 168.3" id="mft-logo" width="4272" height="1683" viewBox="0 0 427.2 168.3" xmlns="http://www.w3.org/2000/svg">
<g fill="#ff8c3d">
<g fill="#122e38">
<polygon id="mft-logo-path-1" points="0 0 42.88 0 74.81 74.64 106.75 0 151.04 0 151.04 118.22 121.92 118.22 121.92 30.17 84.34 118.22 64.58 118.22 27.88 32.29 27.88 118.22 0 118.22 0 0"></polygon>
<polygon id="mft-logo-path-2" points="205.56 118.22 176.44 118.22 176.44 0 292.88 0 292.88 25.41 205.56 25.41 205.56 118.22"></polygon>
<polygon id="mft-logo-path-3" points="358.69 25.41 318.28 25.41 318.28 0 428.21 0 428.21 25.41 387.8 25.41 387.8 118.22 358.69 118.22 358.69 25.41"></polygon>
<polygon id="mft-logo-path-4" points="241.14 77.38 221.7 77.38 221.96 50.76 267.76 50.76 241.14 77.38"></polygon>
</g>
</g></svg>
